<mxfile host="app.diagrams.net" modified="2021-01-13T03:32:40.804Z" agent="5.0 (Windows NT 10.0; Win64; x64) AppleWebKit/537.36 (KHTML, like Gecko) Chrome/87.0.4280.141 Safari/537.36" etag="cc5QivKvQS670X162Oag" version="14.1.3" type="github">
  <diagram id="3zNgkSxQqikDWieNoD0b" name="Page-1">
    <mxGraphModel dx="868" dy="488" grid="1" gridSize="10" guides="1" tooltips="1" connect="1" arrows="1" fold="1" page="1" pageScale="1" pageWidth="827" pageHeight="1169" math="0" shadow="0">
      <root>
        <mxCell id="0" />
        <mxCell id="1" parent="0" />
        <mxCell id="DLi7sQk2-BFpiSn3wqxf-4" value="" style="rounded=0;whiteSpace=wrap;html=1;fillColor=#FFE040;strokeColor=none;" vertex="1" parent="1">
          <mxGeometry x="180" y="630" width="160" height="240" as="geometry" />
        </mxCell>
        <mxCell id="DLi7sQk2-BFpiSn3wqxf-3" value="" style="edgeStyle=orthogonalEdgeStyle;rounded=0;orthogonalLoop=1;jettySize=auto;html=1;strokeColor=#B3B3B3;" edge="1" parent="1" source="DLi7sQk2-BFpiSn3wqxf-1" target="DLi7sQk2-BFpiSn3wqxf-2">
          <mxGeometry relative="1" as="geometry" />
        </mxCell>
        <mxCell id="DLi7sQk2-BFpiSn3wqxf-1" value="CONCEPCIÓN" style="rounded=1;whiteSpace=wrap;html=1;fillColor=#FFF5C0;strokeColor=#B3B3B3;fontSize=11;fontColor=#666666;fontStyle=1" vertex="1" parent="1">
          <mxGeometry x="200" y="650" width="120" height="60" as="geometry" />
        </mxCell>
        <mxCell id="DLi7sQk2-BFpiSn3wqxf-2" value="ELABORACIÓN" style="rounded=1;whiteSpace=wrap;html=1;fillColor=#FFF5C0;strokeColor=#B3B3B3;fontSize=11;fontColor=#666666;fontStyle=1" vertex="1" parent="1">
          <mxGeometry x="200" y="790" width="120" height="60" as="geometry" />
        </mxCell>
        <mxCell id="DLi7sQk2-BFpiSn3wqxf-5" value="" style="rounded=0;whiteSpace=wrap;html=1;fillColor=#FFEA80;strokeColor=none;" vertex="1" parent="1">
          <mxGeometry x="342" y="630" width="348" height="240" as="geometry" />
        </mxCell>
        <mxCell id="DLi7sQk2-BFpiSn3wqxf-8" value="" style="edgeStyle=orthogonalEdgeStyle;rounded=0;orthogonalLoop=1;jettySize=auto;html=1;strokeColor=#B3B3B3;" edge="1" parent="1" source="DLi7sQk2-BFpiSn3wqxf-6" target="DLi7sQk2-BFpiSn3wqxf-7">
          <mxGeometry relative="1" as="geometry" />
        </mxCell>
        <mxCell id="DLi7sQk2-BFpiSn3wqxf-6" value="Modelado del&lt;br&gt;&amp;nbsp;negocio" style="rounded=1;whiteSpace=wrap;html=1;fillColor=#FFF5C0;strokeColor=#B3B3B3;fontSize=11;fontColor=#666666;" vertex="1" parent="1">
          <mxGeometry x="370" y="660" width="110" height="40" as="geometry" />
        </mxCell>
        <mxCell id="DLi7sQk2-BFpiSn3wqxf-10" value="" style="edgeStyle=orthogonalEdgeStyle;rounded=0;orthogonalLoop=1;jettySize=auto;html=1;strokeColor=#B3B3B3;" edge="1" parent="1" source="DLi7sQk2-BFpiSn3wqxf-7" target="DLi7sQk2-BFpiSn3wqxf-9">
          <mxGeometry relative="1" as="geometry" />
        </mxCell>
        <mxCell id="DLi7sQk2-BFpiSn3wqxf-7" value="Requerimientos" style="rounded=1;whiteSpace=wrap;html=1;fillColor=#FFF5C0;strokeColor=#B3B3B3;fontSize=11;fontColor=#666666;" vertex="1" parent="1">
          <mxGeometry x="370" y="800" width="110" height="40" as="geometry" />
        </mxCell>
        <mxCell id="DLi7sQk2-BFpiSn3wqxf-9" value="Análisis y diseño" style="rounded=1;whiteSpace=wrap;html=1;fillColor=#FFF5C0;strokeColor=#B3B3B3;fontSize=11;fontColor=#666666;" vertex="1" parent="1">
          <mxGeometry x="560" y="800" width="110" height="40" as="geometry" />
        </mxCell>
        <mxCell id="DLi7sQk2-BFpiSn3wqxf-12" value="" style="endArrow=none;dashed=1;html=1;exitX=0;exitY=0.5;exitDx=0;exitDy=0;entryX=1;entryY=0.5;entryDx=0;entryDy=0;strokeColor=#B3B3B3;" edge="1" parent="1" source="DLi7sQk2-BFpiSn3wqxf-4" target="DLi7sQk2-BFpiSn3wqxf-5">
          <mxGeometry width="50" height="50" relative="1" as="geometry">
            <mxPoint x="190" y="740" as="sourcePoint" />
            <mxPoint x="240" y="690" as="targetPoint" />
          </mxGeometry>
        </mxCell>
        <mxCell id="DLi7sQk2-BFpiSn3wqxf-13" value="FASES DEL RUP" style="rounded=1;whiteSpace=wrap;html=1;fillColor=#FFE040;strokeColor=none;fontStyle=1;horizontal=0;fontColor=#666666;" vertex="1" parent="1">
          <mxGeometry x="148" y="630" width="30" height="240" as="geometry" />
        </mxCell>
        <mxCell id="DLi7sQk2-BFpiSn3wqxf-14" value="&lt;span style=&quot;background-color: rgb(255 , 224 , 64)&quot;&gt;FLUJOS DE TRABAJO DEL PROCESO&lt;/span&gt;" style="rounded=1;whiteSpace=wrap;html=1;fillColor=#FFE040;strokeColor=none;fontStyle=1;fontColor=#666666;" vertex="1" parent="1">
          <mxGeometry x="340" y="600" width="350" height="28" as="geometry" />
        </mxCell>
      </root>
    </mxGraphModel>
  </diagram>
</mxfile>
